<?xml version="1.0" encoding="utf-8"?>
<!-- Generator: Adobe Illustrator 20.0.0, SVG Export Plug-In . SVG Version: 6.00 Build 0)  -->
<svg version="1.1" id="Layer_1" xmlns="http://www.w3.org/2000/svg" xmlns:xlink="http://www.w3.org/1999/xlink" x="0px" y="0px"
	 viewBox="0 0 183 63" style="enable-background:new 0 0 183 63;" xml:space="preserve">
<style type="text/css">
	.st0{fill:#1B1B1B;}
</style>
<g>
	<path class="st0" d="M181.2,1.8c0-1-0.9-1.8-2-1.8h-26.4c-1.1,0-2,0.8-2,1.8v42.3c0,1,0.9,1.8,2,1.8h26.4c1.1,0,2-0.8,2-1.8V1.8z
		 M167.3,43.8c0,0.2-0.2,0.3-0.3,0.3h-1.9c-0.2,0-0.3-0.1-0.3-0.3v-1.7c0-0.2,0.2-0.3,0.3-0.3h1.9c0.2,0,0.3,0.1,0.3,0.3V43.8z
		 M178.6,39.4h-25.2V2.8h25.2V39.4z"/>
	<g>
		<path class="st0" d="M71.8,2.7c0-1.5-1.3-2.7-2.9-2.7H10.4C8.8,0,7.5,1.2,7.5,2.7v35c0,1.5,1.3,2.7,2.9,2.7h58.6
			c1.6,0,2.9-1.2,2.9-2.7V2.7z M10.6,37V2.8h58.2V37H10.6z"/>
		<path class="st0" d="M76.9,46v-1.7c0-1.5-1.1-2.6-2.7-2.6H4.8c-1.6,0-3,1.1-3,2.6V46H76.9z"/>
	</g>
	<path class="st0" d="M142.4,2.6c0-1.4-1.2-2.6-2.8-2.6H83.4c-1.5,0-2.8,1.1-2.8,2.6v33.3c0,1.4,1.2,2.6,2.8,2.6h56.2
		c1.5,0,2.8-1.1,2.8-2.6V2.6z M139.8,20.4c0,0.2-0.2,0.4-0.5,0.4h-2.6c-0.3,0-0.5-0.2-0.5-0.4V18c0-0.2,0.2-0.4,0.5-0.4h2.6
		c0.3,0,0.5,0.2,0.5,0.4V20.4z M134.7,2.8V36H83.7V2.8H134.7z"/>
</g>
</svg>
