<?xml version="1.0" encoding="utf-8"?>
<!-- Generator: Adobe Illustrator 20.0.0, SVG Export Plug-In . SVG Version: 6.00 Build 0)  -->
<svg version="1.1" id="Layer_1" xmlns="http://www.w3.org/2000/svg" xmlns:xlink="http://www.w3.org/1999/xlink" x="0px" y="0px"
	 viewBox="0 0 63 63" style="enable-background:new 0 0 63 63;" xml:space="preserve">
<style type="text/css">
	.st0{fill:#1B1B1B;}
</style>
<path class="st0" d="M52.7,42.4L51,40.7c5.2-5.2,8.1-12.1,8.1-19.5S56.2,6.9,51,1.7L52.7,0c5.7,5.7,8.8,13.2,8.8,21.2
	S58.4,36.8,52.7,42.4z M10.3,42.4c-5.7-5.7-8.8-13.2-8.8-21.2S4.6,5.7,10.3,0L12,1.7C6.8,6.9,3.9,13.9,3.9,21.2S6.8,35.5,12,40.7
	L10.3,42.4z M47,36.7L45.3,35C49,31.3,51,26.4,51,21.2s-2-10.1-5.7-13.8L47,5.7c4.1,4.1,6.4,9.6,6.4,15.5S51.1,32.6,47,36.7z
	 M16,36.7c-4.1-4.1-6.4-9.6-6.4-15.5S11.9,9.9,16,5.7l1.7,1.7C14.1,11.1,12,16,12,21.2s2,10.1,5.7,13.8L16,36.7z M31.5,8.6
	c7,0,12.6,5.6,12.6,12.6s-5.6,12.6-12.6,12.6s-12.6-5.6-12.6-12.6S24.5,8.6,31.5,8.6z M30.3,63V25.3h2.4V63H30.3z"/>
</svg>
