<?xml version="1.0" encoding="utf-8"?>
<!-- Generator: Adobe Illustrator 20.0.0, SVG Export Plug-In . SVG Version: 6.00 Build 0)  -->
<svg version="1.1" id="Layer_1" xmlns="http://www.w3.org/2000/svg" xmlns:xlink="http://www.w3.org/1999/xlink" x="0px" y="0px"
	 viewBox="0 0 148.2 63" style="enable-background:new 0 0 148.2 63;" xml:space="preserve">
<style type="text/css">
	.st0{fill:#1B1B1B;}
</style>
<path class="st0" d="M145.2,1.8c0-1-0.9-1.8-2-1.8h-26.4c-1.1,0-2,0.8-2,1.8v42.3c0,1,0.9,1.8,2,1.8h26.4c1.1,0,2-0.8,2-1.8V1.8z
	 M131.3,43.8c0,0.2-0.2,0.3-0.3,0.3h-1.9c-0.2,0-0.3-0.1-0.3-0.3v-1.7c0-0.2,0.2-0.3,0.3-0.3h1.9c0.2,0,0.3,0.1,0.3,0.3V43.8z
	 M142.6,39.4h-25.2V2.8h25.2V39.4z M72.5,2.7c0-1.5-1.3-2.7-2.9-2.7H11C9.4,0,8.2,1.2,8.2,2.7v35c0,1.5,1.3,2.7,2.9,2.7h58.6
	c1.6,0,2.9-1.2,2.9-2.7L72.5,2.7L72.5,2.7z M11.2,37V2.8h58.2V37H11.2z M77.6,46v-1.7c0-1.5-1.1-2.6-2.7-2.6H5.5c-1.6,0-3,1.1-3,2.6
	V46H77.6z M81.7,21.5h24.5v3H81.7V21.5z M92.4,10.8h3v24.5h-3V10.8z"/>
</svg>
