<?xml version="1.0" encoding="utf-8"?>
<!-- Generator: Adobe Illustrator 20.0.0, SVG Export Plug-In . SVG Version: 6.00 Build 0)  -->
<svg version="1.1" id="Layer_1" xmlns="http://www.w3.org/2000/svg" xmlns:xlink="http://www.w3.org/1999/xlink" x="0px" y="0px"
	 viewBox="0 0 58 63" style="enable-background:new 0 0 58 63;" xml:space="preserve">
<style type="text/css">
	.st0{fill:#1B1B1B;}
</style>
<g>
	<g>
		<path class="st0" d="M15.8,26.7h37.1v35.9H5.1V26.7h8.4V15.9c0-4.3,1.5-8,4.6-11c3-3,6.7-4.6,11-4.6s8,1.5,11,4.6
			c3,3,4.6,6.7,4.6,11v1.2h-2.4v-1.2c0-3.6-1.3-6.7-3.9-9.3c-2.6-2.6-5.7-3.9-9.3-3.9S22.4,4,19.8,6.6s-3.9,5.7-3.9,9.3L15.8,26.7
			L15.8,26.7z M50.6,60.2V29.1H7.4v31.1H50.6z M25.6,37.6c0.9-0.9,2-1.3,3.4-1.3s2.5,0.4,3.4,1.3c0.9,0.9,1.3,2,1.3,3.4
			c0,2.4-1.2,3.9-3.6,4.6v6.1c0,0.8-0.4,1.2-1.2,1.2c-0.8,0-1.2-0.4-1.2-1.2v-6.1c-2.4-0.7-3.6-2.2-3.6-4.6
			C24.2,39.7,24.7,38.5,25.6,37.6z M26.6,41.1c0,1.6,0.8,2.4,2.4,2.4s2.4-0.8,2.4-2.4c0-1.6-0.8-2.4-2.4-2.4
			C27.4,38.7,26.6,39.5,26.6,41.1z"/>
		<path class="st0" d="M53.3,63H4.7V26.3h8.4V15.9c0-4.4,1.6-8.2,4.7-11.3c3-3,6.8-4.6,11.2-4.6s8.2,1.6,11.3,4.7S45,11.6,45,16v1.6
			h-3.1V16c0-3.5-1.3-6.5-3.8-9s-5.5-3.8-9-3.8s-6.5,1.3-9,3.8s-3.8,5.5-3.8,9v10.4h37.1V63H53.3z M5.4,62.3h47.2V27.1H15.5V15.9
			c0-3.7,1.3-6.9,4-9.5c2.7-2.7,5.9-4,9.5-4c3.7,0,6.9,1.3,9.5,4c2.7,2.7,4,5.9,4,9.5v0.8h1.7v-0.8c0-4.2-1.5-7.8-4.5-10.7
			c-3-3-6.6-4.5-10.7-4.5c-4.2,0-7.8,1.5-10.7,4.5c-3,3-4.5,6.6-4.5,10.7V27H5.4V62.3z M50.9,60.6H7.1V28.7h43.8
			C50.9,28.7,50.9,60.6,50.9,60.6z M7.8,59.9h42.4V29.5H7.8V59.9z M29,53.4c-1,0-1.6-0.6-1.6-1.6V46c-2.4-0.8-3.6-2.4-3.6-4.9
			c0-1.5,0.5-2.7,1.5-3.7l0,0c1-1,2.2-1.5,3.7-1.5s2.7,0.5,3.7,1.5s1.5,2.2,1.5,3.7c0,2.5-1.2,4.1-3.6,4.9v5.9
			C30.6,52.9,30,53.4,29,53.4z M25.8,37.9c-0.8,0.8-1.2,1.9-1.2,3.2c0,2.2,1.1,3.6,3.3,4.3l0.3,0.1v6.4c0,0.6,0.2,0.8,0.8,0.8
			s0.8-0.2,0.8-0.8v-6.4l0.3-0.1c2.2-0.7,3.3-2.1,3.3-4.3c0-1.3-0.4-2.3-1.2-3.2c-0.8-0.8-1.9-1.2-3.2-1.2
			C27.7,36.7,26.7,37.1,25.8,37.9L25.8,37.9z M29,43.8c-1.8,0-2.8-1-2.8-2.8s1-2.8,2.8-2.8s2.8,1,2.8,2.8
			C31.8,42.9,30.8,43.8,29,43.8z M29,39.1c-1.4,0-2,0.6-2,2s0.6,2,2,2s2-0.6,2-2C31,39.7,30.4,39.1,29,39.1z"/>
	</g>
</g>
</svg>
