<svg id="Layer_1" data-name="Layer 1" xmlns="http://www.w3.org/2000/svg" xmlns:xlink="http://www.w3.org/1999/xlink" viewBox="0 0 35.34 35.31"><defs><style>.cls-1{fill:none;}.cls-2{clip-path:url(#clip-path);}.cls-3{fill:url(#linear-gradient);}.cls-4{clip-path:url(#clip-path-2);}.cls-5{fill:url(#linear-gradient-2);}</style><clipPath id="clip-path"><circle class="cls-1" cx="17.67" cy="17.66" r="17.56"/></clipPath><linearGradient id="linear-gradient" x1="-300.98" y1="104.64" x2="-300.76" y2="104.64" gradientTransform="matrix(160.04, 0, 0, -160.04, 48168.9, 16764.75)" gradientUnits="userSpaceOnUse"><stop offset="0" stop-color="#d7128c"/><stop offset="0.1" stop-color="#d7128c"/><stop offset="0.9" stop-color="#ee2c25"/><stop offset="1" stop-color="#ee2c25"/></linearGradient><clipPath id="clip-path-2"><path class="cls-1" d="M24.71,14L6.34,4.13,6.25,4.07l-0.09.08A17.66,17.66,0,0,0,1.81,9.72l-0.08.16L1.89,10l15.39,7.7L1.89,25.35l-0.16.08,0.08,0.16a17.68,17.68,0,0,0,4.35,5.57l0.09,0.08,0.11-.06,18.36-9.86,0-.05,0.14-.1v-7L24.75,14Z"/></clipPath><linearGradient id="linear-gradient-2" x1="-299.19" y1="106.08" x2="-298.97" y2="106.08" gradientTransform="matrix(105.51, 0, 0, -105.51, 31569.97, 11210.22)" gradientUnits="userSpaceOnUse"><stop offset="0" stop-color="#f3f3f3"/><stop offset="0.42" stop-color="#fff"/><stop offset="1" stop-color="#fff"/></linearGradient></defs><title>viaplay_icon2</title><g class="cls-2"><rect class="cls-3" x="-5.35" y="-5.37" width="46.05" height="46.05" transform="translate(-5.49 27.02) rotate(-67)"/><g class="cls-4"><rect class="cls-5" x="1.87" y="4.16" width="23.02" height="27"/></g></g></svg>